<svg id="Layer_1" data-name="Layer 1" xmlns="http://www.w3.org/2000/svg" xmlns:xlink="http://www.w3.org/1999/xlink" viewBox="0 0 3831 654.8"><defs><style>.cls-1{fill:url(#linear-gradient);}.cls-2{fill:url(#linear-gradient-2);}.cls-3{fill:none;}.cls-4{fill:url(#linear-gradient-3);}.cls-5{fill:#35b6e9;}.cls-6{fill:red;}</style><linearGradient id="linear-gradient" x1="-1762.13" y1="4529.23" x2="-1700.91" y2="4481.8" gradientTransform="matrix(1, 0, 0, -1, 2079.04, 4702.34)" gradientUnits="userSpaceOnUse"><stop offset="0" stop-color="#3a97bf"/><stop offset="0.28" stop-color="#3ba0c8"/><stop offset="0.74" stop-color="#3fb8e2"/><stop offset="0.99" stop-color="#41c8f3"/></linearGradient><linearGradient id="linear-gradient-2" x1="-1729.41" y1="4180.46" x2="-1367.61" y2="4369.4" gradientTransform="matrix(1, 0, 0, -1, 2079.04, 4702.34)" gradientUnits="userSpaceOnUse"><stop offset="0.21" stop-color="#41c8f3"/><stop offset="0.27" stop-color="#3db9e4"/><stop offset="0.52" stop-color="#2c7ea6"/><stop offset="0.7" stop-color="#215880"/><stop offset="0.79" stop-color="#1d4a71"/><stop offset="1" stop-color="#1c476f"/></linearGradient><linearGradient id="linear-gradient-3" x1="-1853.29" y1="4430.96" x2="-1830.79" y2="4270.46" gradientTransform="matrix(1, 0, 0, -1, 2079.04, 4702.34)" gradientUnits="userSpaceOnUse"><stop offset="0.21" stop-color="#41c8f3"/><stop offset="0.36" stop-color="#3eb8e2"/><stop offset="0.77" stop-color="#3590b6"/><stop offset="0.98" stop-color="#3280a5"/></linearGradient></defs><title>dlogo</title><g id="Layer_5" data-name="Layer 5"><path class="cls-1" d="M411.8,31.7s5.3-3.7,13.3,0c0,0,95,23.7,157,108,0,0,39.3,48.3,53.3,120,0,0,8.3,62,2.7,96,0,0-5.3,47.7-33.7,96.3,0,0-47,54.7-72.3,59.3l-39.8-48s15-42.5,13.8-84c0,0,1.8-56.3-67.8-100.8,0,0-34.8-24-97.8-22,0,0-33-2.5-100,24.3,0,0-25.5,10.5-58.5,39.8l12-35.9s34.5-82.2,55.2-108.2c0,0,41.7-60.7,85.2-94.8C334.4,81.7,384.6,42.6,411.8,31.7Z" transform="translate(-8 -11)"/><path class="cls-2" d="M136.4,497.7S269.4,523,351.1,510c0,0,54.7-.7,145.3-48.3,0,0,100.3-58.7,141.3-107.7,0,0,4.3,65.3-34.3,130.3,0,0-43.3,86.3-138.7,126.7,0,0-60.3,35-164,29.7,0,0-80-1.3-148.7-51.3h0s-49-47-62-79.3C90.1,510.1,96.4,495.4,136.4,497.7Z" transform="translate(-8 -11)"/><path class="cls-3" d="M414.1,20.4" transform="translate(-8 -11)"/><path class="cls-4" d="M414.1,20.4s-193,43.3-265,296.2c0,0-36,100.8,5,272.8h0S18.3,523.7,11.2,316.6h0S3.1,173.4,150.1,63.4c0,0,110-79,264-43" transform="translate(-8 -11)"/></g><g id="Layer_7" data-name="Layer 7"><path d="M875.2,181.2q70.2,0,120.2,50.4t50.1,120.9q0,71.4-50.8,121.7T872.1,524.5q-71.9,0-122.7-50.4T698.5,352.5q0-72.5,50.9-121.9T875.2,181.2Zm-3.3,122a45,45,0,0,0-33.7,14.4c-9.3,9.6-13.9,21.3-13.9,35.2a48.6,48.6,0,0,0,14.1,35.1c9.4,9.7,20.6,14.6,33.6,14.6s24.5-4.8,33.9-14.6A48.6,48.6,0,0,0,920,352.8c0-13.9-4.6-25.6-13.9-35.2A45.9,45.9,0,0,0,871.9,303.2Z" transform="translate(-8 -11)"/><path d="M1221,66V518H1097V66Z" transform="translate(-8 -11)"/><path d="M1417,188V518H1293V188ZM1355.5,40.9q25.2,0,43.5,17.7c12.2,11.8,18.4,25.8,18.4,41.8s-5.8,31.3-17.4,42.3-26.4,16.5-44.5,16.5-32.9-5.5-44.5-16.5-17.4-25.1-17.4-42.3,6.1-30,18.4-41.8S1338.8,40.9,1355.5,40.9Z" transform="translate(-8 -11)"/><path d="M1737.6,188,1583.5,530.7,1431.3,188h118.1l35.1,89,38.4-89Z" transform="translate(-8 -11)"/><path d="M2076.4,373H1887.2a91.6,91.6,0,0,1-4.3-26.3,92.7,92.7,0,0,1,6-32.7h63.5q-6.7-37-41.7-37c-15.5,0-28.2,6.6-38,19.9S1858,327,1858,347.7s4.7,39,14.2,52.3,21.9,20,37.2,20c12.4,0,24.5-6.3,36-18.7l71.1,85.5q-49.8,39-110.4,39c-49.5,0-90.9-16.5-124.5-49.7s-50.4-74.2-50.4-123.2,16.9-89.8,50.8-123.4,75.6-50.3,125-50.3,88.7,16.4,121.6,49.2,49.2,73.2,49.2,121.2C2077.7,354.5,2077.3,362.3,2076.4,373Z" transform="translate(-8 -11)"/><path class="cls-5" d="M2243,66V336.3c0,43.9,15.9,65.8,47.5,65.8,13.5,0,25.1-4.6,34.4-13.7a44.3,44.3,0,0,0,14.2-33.2c0-13.4-4.4-24.8-13.3-33.9a43.6,43.6,0,0,0-32.5-13.7c-9.1,0-19.5,4-31.3,11.9V183.1c14.6-1.3,25.7-2,33.2-2q69.9,0,119.9,50.3t50,121.1q0,72.5-50.8,122.1t-124.7,49.6a172,172,0,0,1-72.5-16.2c-23.6-10.8-42.9-25.4-58.3-43.7q-39.9-47.7-39.8-123.4V66Z" transform="translate(-8 -11)"/><path class="cls-5" d="M2674.7,181.2q70.2,0,120.2,50.4T2845,352.5q0,71.4-50.8,121.7t-122.6,50.3q-71.8,0-122.7-50.4T2498,352.5q0-72.5,50.9-121.9T2674.7,181.2Zm-3.3,122a45,45,0,0,0-33.7,14.4c-9.3,9.6-13.9,21.3-13.9,35.2a48.6,48.6,0,0,0,14.1,35.1c9.4,9.7,20.6,14.6,33.6,14.6s24.5-4.8,33.9-14.6a48.6,48.6,0,0,0,14.1-35.1c0-13.9-4.6-25.6-13.9-35.2A45.9,45.9,0,0,0,2671.4,303.2Z" transform="translate(-8 -11)"/><path class="cls-5" d="M3080,394.2v128a159,159,0,0,1-27.8,2.6q-74.5,0-124.1-49t-49.6-122.7q0-71.9,50.1-121.7t122-49.9c53.4,0,95.4,15.6,126.3,46.8s46.1,73.8,46.1,127.9V518H3099V365.2q0-26.1-12.6-41.7c-8.5-10.4-19.8-15.5-34.1-15.5s-24.1,4.7-33.5,14.2-14.1,20.7-14.1,33.7,4.3,24.9,12.8,33.7,19.4,13.2,32.6,13.2A56.1,56.1,0,0,0,3080,394.2Z" transform="translate(-8 -11)"/><path class="cls-5" d="M3476,184.9V317.2c-8.6-4.8-16.3-7.3-23.4-7.3q-33.6,0-33.6,51.6V518H3295V337.7q0-71.4,39-114c26-28.3,60.9-42.5,104.3-42.5C3448,181.3,3460.6,182.5,3476,184.9Z" transform="translate(-8 -11)"/><path class="cls-5" d="M3715,66h124V340.9q0,75.8-39.8,123.4-22.9,27.4-58.3,43.7a172,172,0,0,1-72.5,16.2q-74,0-124.7-49.6t-50.8-121.7q0-69.7,50.5-120.7t119.4-50.9c7.3,0,18.4.7,33.2,2V319.6c-10.2-7.9-20.4-11.9-30.6-11.9a44.4,44.4,0,0,0-33,14.1c-9.3,9.4-13.8,20.7-13.8,33.9s4.7,23.8,14.3,32.9a47.3,47.3,0,0,0,34.2,13.7c32,0,47.9-21.9,47.9-65.8V66Z" transform="translate(-8 -11)"/></g><g id="Layer_8" data-name="Layer 8"><circle class="cls-6" cx="1347.1" cy="89.4" r="62.8"/></g></svg>